<?xml version="1.0" encoding="utf-8"?>
<!-- Generator: Adobe Illustrator 19.0.0, SVG Export Plug-In . SVG Version: 6.00 Build 0)  -->
<svg version="1.1" id="Layer_1" xmlns="http://www.w3.org/2000/svg" xmlns:xlink="http://www.w3.org/1999/xlink" x="0px" y="0px"
	 viewBox="0 0 200 200" enable-background="new 0 0 200 200" xml:space="preserve">
<g id="XMLID_1_">
	<path id="XMLID_10_" d="M81.5,200c-4.1-1.7-7.4-4.3-9-8.5c-1.1-2.9-1.7-6-2.2-9.1c-1.1-6.8,0.1-13.4,1.7-19.9
		c1.7-6.6,1.5-13,0.1-19.6c-2.2-10.2-3.3-20.5-3.4-30.9c-0.1-9.1,0-18.2,0.4-27.3c0.3-8,1.2-16,4.5-23.4c2.3-5.3,5.1-10.4,7.8-15.5
		c3.4-6.5,5.3-13.4,6.1-20.7c0.3-2.3,0.4-4.5,0.6-7c-1.1-0.1-2-0.1-3.1-0.2c0.3-2.1-0.9-4.3,0.9-6.2c0.3-0.3,0.1-0.9,0.2-1.4
		c0-2.5,0.1-5,0-7.5c-0.1-1.7,0.4-2.4,2.1-2.5c1.3,0,2.6-0.4,3.9-0.6c5.3,0,10.6,0,16,0c1.5,0.2,2.9,0.5,4.4,0.7
		c1.2,0.1,1.7,0.5,1.6,1.8c-0.1,2.8-0.1,5.5,0,8.3c0,0.6,0.4,1.1,0.6,1.7c0.2,0.4,0.4,0.9,0.4,1.3c0.1,1.4,0,2.8,0,4.4
		c-1,0.1-1.9,0.1-2.9,0.2c-0.1,0.4-0.2,0.7-0.1,1.1c0.5,10.5,2.9,20.5,8.3,29.6c4.3,7.3,8.1,14.8,9.3,23.2
		c0.9,6.3,1.6,12.6,1.7,18.9c0.2,9.2,0,18.5-0.3,27.8c-0.3,8.9-1.7,17.8-3.6,26.5c-1.1,5.3-1,10.5,0.3,15.8c1.3,5.6,2.6,11.2,2.4,17
		c-0.2,5.2-0.8,10.4-3.4,15.1c-1.8,3.3-4.7,5.2-8,6.7C106.2,200,93.8,200,81.5,200z"/>
</g>
</svg>
