<?xml version="1.0" encoding="utf-8"?>
<!-- Generator: Adobe Illustrator 19.0.0, SVG Export Plug-In . SVG Version: 6.00 Build 0)  -->
<svg version="1.1" id="Layer_1" xmlns="http://www.w3.org/2000/svg" xmlns:xlink="http://www.w3.org/1999/xlink" x="0px" y="0px"
	 viewBox="0 0 200 200" enable-background="new 0 0 200 200" xml:space="preserve">
<g id="XMLID_1_">
	<path id="XMLID_13_" d="M119.5,124.8c5.8,0,11.7,0.2,17.5,0c12.4-0.6,24.1,9.5,26,19.6c0.9,5.1,1.2,10.3,1.2,15.5
		c0,2.4-2,4.1-4.6,4.1c-3.3,0.1-6.5,0-9.8,0c-2.6,0-4.1-1.4-4.5-3.8c-0.3-2.3-0.3-4.7-0.4-7.1c-0.3-5.8-3-8.9-9.3-9.2
		c-5.1-0.3-10.3,0-15.4-0.1c-2.6-0.1-3.5,1.1-3.5,3.5c0.1,5.8-0.1,11.7,0,17.5c0.1,5.7-1.3,8.7-8.5,8.6c-11.8-0.2-23.5-0.1-35.3-0.1
		c-4.4,0-7-2.5-7.1-6.9c0-11.8,0-23.5,0-35.3c0-4,2.5-6.3,6.5-6.4c2.6,0,5.1-0.1,7.7,0c1.9,0,2.7-0.7,2.7-2.6c-0.1-4,0-8.1,0-12.2
		c0-0.6,0-1.4-0.3-1.7c-5.5-4.4-7-11.2-10.2-16.9c-5.4-9.8-10.2-19.9-15.3-29.9c-6-11.9-11.9-23.8-18-35.7c-1.7-3.3-3.2-6.4-3-10.3
		c0.2-6.4,4.5-12.4,10.6-14.5c9.6-3.2,17.3,0.4,21,10c3.7,9.9,7.3,19.8,11,29.7C82.6,52.2,86.8,63.6,91,75c2.7,7.2,5.3,14.5,8,21.7
		c0.8,2.1,0.3,3.7-1.9,4.9c-0.9,0.5-1.6,2-1.6,3.1c-0.1,5.8,0,11.7-0.1,17.5c0,2.1,0.8,2.7,2.8,2.7
		C105.3,124.7,112.4,124.8,119.5,124.8C119.5,124.8,119.5,124.8,119.5,124.8z"/>
	<path id="XMLID_12_" d="M155,170.4c4.1,1.9,4.9,5.6,5.9,8.7c1.2,3.8,1.7,7.8,2.3,11.8c0.8,5.4-3.5,8.9-7.4,9.1
		c-4.6,0.3-9.1-4.6-8-9.7c1.1-5.1,2.4-10.1,4-15C152.3,173.5,153.9,172,155,170.4z"/>
</g>
</svg>
