<?xml version="1.0" encoding="utf-8"?>
<!-- Generator: Adobe Illustrator 15.0.0, SVG Export Plug-In . SVG Version: 6.00 Build 0)  -->
<!DOCTYPE svg PUBLIC "-//W3C//DTD SVG 1.1//EN" "http://www.w3.org/Graphics/SVG/1.1/DTD/svg11.dtd">
<svg version="1.1" xmlns="http://www.w3.org/2000/svg" xmlns:xlink="http://www.w3.org/1999/xlink" x="0px" y="0px" width="625px"
	 height="175px" viewBox="0 0 625 175" enable-background="new 0 0 625 175" xml:space="preserve">
<g id="Layer_1">
	<g>
		<defs>
			<polygon id="SVGID_1_" points="11.5,17.175 353.5,10.1 376.677,58.266 393.086,82.5 427.518,72.332 484.5,54.311 625,57.525 
				625,167.5 4.5,175 			"/>
		</defs>
		<clipPath id="SVGID_2_">
			<use xlink:href="#SVGID_1_"  overflow="visible"/>
		</clipPath>
		<g clip-path="url(#SVGID_2_)">
			<g>
				<path d="M42.563,127.164c-0.445,1.187-0.666,1.78-1.109,2.967c-3.039,9.162-6.67,18.23-5.583,27.729
					c0.205,1.788,2.935,4.903,2.913,5.058c-0.031,0.218-3.641,1.905-7.52,3.987c-1.795,0.964-3.567,1.566-5.277,1.826
					c-3.422,0.519-5.486-0.912-5.881-4.064c-1.382-11.032,4.08-22.371,8.188-32.64c0.709-1.615,1.065-2.424,1.777-4.038
					c-1.528,0.224-2.292,0.337-3.819,0.563c-8.188,1.214-18.424,6.604-18.424,6.604c-0.573-0.326,6.751-13.611,17.082-15.144
					c3.743-0.467,5.614-0.694,9.359-1.143c0.646-1.276,0.969-1.915,1.618-3.191c8.924-17.709,19.637-34.49,30.514-50.969
					c4.771-7.228,8.558-11.809,11.172-13.737s15.256-6.64,15.792-6.205c1.286,1.044-0.489,17.217,0.418,24.637
					c2.489,20.36,7.255,40.373,13.77,59.877c3.647,10.92,13.908,19.817,14.067,20.565c0.287,1.347-8.255,8.027-11.184,8.002
					c-13.07-0.114-19.802-35.863-22.531-37.439c-2.336-1.35-16.433,3.286-24.83,4.369C54.867,125.69,50.764,126.166,42.563,127.164z
					 M46.787,117.856c6.101-0.688,9.152-1.02,15.256-1.659c10.393-1.34,23.086-2.828,23.768-3.949
					c2.167-3.565-6.717-27.73-8.477-41.925c-0.227-2.186-0.34-3.278-0.567-5.464c-1.459,2.238-4.905,7.133-9.792,14.615
					c-7.266,11.122-14.225,22.698-18.992,35.336C47.503,116.029,47.264,116.638,46.787,117.856z"/>
				<path d="M224.458,86.701c-8.403,16.378-17.342,32.562-28.994,46.743c-6.546,7.967-15.674,17.166-26.336,18.197
					c-5.625,0.544-10.578-1.393-14.497-5.503s-6.199-9.708-6.805-16.812c-0.34-3.988-0.077-9.699,0.816-17.125
					c2.979-24.814,6.118-49.605,9.412-74.379c-2.012,0.448-3.775,0.733-5.287,0.853c-11.994,0.948-18.396-3.166-19.218-12.505
					c-0.059-0.671-0.088-1.006-0.147-1.678c6.594,2.754,13.825,3.811,21.742,3.197c7.915-0.613,14.699-2.929,20.398-6.982
					c-4.09,29.694-7.958,59.414-11.603,89.166c-0.958,8.006-1.309,13.497-1.079,16.466c0.637,8.228,4.029,12.094,10.176,11.647
					c5.949-0.432,11.786-4.146,17.337-11.123c10.674-13.415,19.02-29.091,27.79-43.903
					C220.685,84.453,221.944,85.201,224.458,86.701z"/>
				<path d="M223.201,115.987c-2.442,2.557,7.04,21.454,19.421,20.631c13.498-0.897,24.769-8.153,34.98-15.935
					c13.933-10.618,24.87-25.05,35.012-39.778c2.601,1.374,3.9,2.063,6.492,3.445c-9.674,17.201-22.659,33.062-38.182,44.603
					c-12.779,9.501-26.984,18.069-43.674,18.789c-8.837,0.381-16-2.145-21.456-7.541s-8.448-13.019-9.021-22.775
					c-0.79-13.47,3.656-26.855,12.527-37.014c8.711-9.975,21.198-16.073,34.506-16.418c6.613-0.171,11.991,1.266,16.037,4.353
					c4.044,3.085,6.204,7.397,6.202,12.617c-0.004,11.206-7.92,17.733-15.863,23.571C250.15,111.909,225.472,113.61,223.201,115.987
					z M223.481,108.938c1.61,1.605,19.032-4.035,26.769-9.809c7.381-5.508,11.037-11.768,10.856-18.729
					c-0.162-6.23-3.164-9.277-9.007-9.1c-6.97,0.212-13.32,4.001-18.867,11.336C227.495,90.223,222.423,107.882,223.481,108.938z"/>
				<path d="M331.795,120.063c-2.406-0.078-18.02,39.082-19.039,39.528c-1.128,0.494-8.986-7.377-8.865-10.895
					c0.467-13.574,22.979-30.946,23.472-35.705c0.282-2.729-6.883-13.068-10.049-21.548s-4.779-14.592-4.779-18.353
					c0-4.003,15.306-8.578,15.425-8.435c0.105,0.125-0.567,2.061-0.561,2.926c0.104,12.583,10.678,35.369,11.508,35.498
					c2.179,0.339,19.597-21.244,20.518-34.562c-0.021-0.381-0.033-0.573-0.055-0.955c0.617-0.033,2.032-0.097,4.244-0.187
					c0.37,0.009,0.554,0.014,0.924,0.023c5.546,0.145,8.496,1.919,8.189,4.48c-1.696,14.149-29.418,32.764-30.074,37.699
					c-0.485,3.654,13.238,17.182,23.492,17.504c22.502,0.707,39.339-27.217,50.394-43.489c2.494,1.54,3.741,2.312,6.227,3.859
					c-9.859,14.433-19.924,30.305-32.958,40.797c-8.277,6.663-17.029,12.47-28.547,12.259
					C348.528,140.276,332.336,120.081,331.795,120.063z"/>
				<path d="M495.086,92.955c-11.522,15.238-23.572,30.108-38.21,42.341c-8.764,7.324-20.125,14.772-31.879,14.276
					c-5.431-0.229-9.867-2.345-13.065-6.08c-3.2-3.736-4.669-8.501-4.383-14.307c0.108-2.194,0.774-5.655,2.016-10.386
					c0.821-3.187,1.235-4.779,2.062-7.965c3.052-11.483,4.734-19.562,4.981-24.246c0.146-2.779-2.243-6.938-2.243-6.938
					c0.281-0.798,10.924-1.607,12.61-1.509c3.782,0.219,5.52,2.869,5.212,7.932c-0.228,3.75-1.297,9.085-3.179,16.01
					c-1.521,5.626-2.276,8.438-3.78,14.067c-1.854,6.782-2.824,11.202-2.94,13.247c-0.344,6.04,2.269,9.392,7.289,9.516
					c9.412,0.231,18.977-7.69,25.874-13.689c12.396-10.782,23.615-23.263,33.635-36.415
					C491.491,90.463,492.69,91.293,495.086,92.955z M429.4,51.017c0.434,0.055,0.648,0.082,1.082,0.136
					c3.479,0.058,8.56-1.289,15.283-4.002c6.724-2.713,16.01-8.541,16.01-8.541c0.188,0.146-7.263,11.875-13.348,16.015
					c-9.259,6.3-15.374,9.434-18.463,9.252c-2.059-0.121-3.019-1.372-2.882-3.758C427.278,56.709,428.049,53.674,429.4,51.017z"/>
				<path d="M540.553,112.998c-0.27-0.105-16.653,22.368-27.269,30.17c-7.553,5.551-15.694,11.681-25.515,11.14
					c-5.04-0.278-9.188-3.141-11.933-8.005c-2.745-4.866-3.792-11.136-3.185-18.754c1.168-14.64,7.555-28.572,17.816-38.964
					c9.21-9.327,21.928-15.471,35.332-14.021c7.741,0.837,22.859,10.135,24.329,9.7c1.05-0.311,7.571-5.961,17.086-4.736
					c0.614,0.079,2.985,0.461,2.985,0.461c0.208,0.597-6.42,9.314-8.869,16.435c-0.83,2.405-1.246,3.608-2.073,6.014
					c-2.335,6.694-4.063,14.646-5.214,23.851c-1.326,10.61,0.538,16.228,5.588,16.879c5.347,0.689,13.244-2.713,23.773-10.134
					c12.021-8.473,22.42-18.655,32.663-29.186c2.124,1.931,3.184,2.896,5.297,4.833c-10.896,13.327-23.625,25.395-37.695,35.115
					c-9.179,6.342-20.837,13.035-32.411,11.967c-13.414-1.238-14.239-17.979-12.877-28.122
					C538.862,124.072,540.553,112.998,540.553,112.998z M546.168,96.035c-0.197-2.34-15.685-11.683-25.549-12.964
					c-7.509-0.975-14.912,2.994-21.285,11.374c-7.205,9.475-9.815,19.877-11.266,30.987c-1.227,9.397,2.608,15.719,8.481,15.653
					c16.257-0.181,35.571-29.113,46.016-41.348C542.865,99.387,546.208,96.506,546.168,96.035z"/>
			</g>
		</g>
	</g>
</g>
<g id="Kroon">
	<path fill-rule="evenodd" clip-rule="evenodd" d="M412.727,6.494c0.901-0.154,1.804-0.31,2.705-0.464
		c7.309-0.214,5.314,9.608,1.153,11.817c0.885,2.812,1.255,6.351,2.661,8.425c0.939,2.035,1.904,4.031,3.354,5.346
		c0.04,0.293,0.204,0.411,0.425,0.45c0.179,0.867,0.76,1.167,1.305,1.518c1.021,1.219,2.122,2.322,3.625,2.862
		c3.391-0.476,5.562-3.101,6.888-5.533c0.373-0.182,0.356-0.639,0.729-0.821c1.217-1.914,1.89-4.214,2.539-6.529
		c0.182-1.11,0.581-2.066,0.465-3.388c0.344-0.104-0.08-0.751,0.193-0.903c-0.063-0.293-0.052-0.533,0.054-0.706
		c1.702,0.536,6.105,0.419,6.113-1.917c1.075-0.963,0.082-3.29-1.255-3.268c-0.316-0.464-1.22-0.097-1.919-0.02
		c-0.758,0.454-0.572,1.577-0.609,2.542c-0.36,0.928-1.712,1.47-2.649,0.802c-0.031-0.234-0.143-0.357-0.256-0.479
		c-3.96-6.45,7.775-10.005,9.662-3.569c0.175,1.015,0.348,2.029,0.521,3.045c-0.322,2.299-1.195,4.208-2.484,5.823
		c-0.943,0.274-2.403,0.183-3.017,0.69c-0.621,0.106-1.241,0.212-1.86,0.318c0.025,1.703-0.025,3.353-0.403,4.771
		c-0.808,2.896-2.063,5.478-3.52,7.916c-0.901,0.552-1.19,1.536-2.079,2.097c-0.83,0.949-1.956,1.688-3.263,2.3
		c-1.59,0.54-2.919,0.628-4.287,0.386c-0.681-0.229-1.455-0.323-2.035-0.696c-1.243-0.553-2.33-1.329-3.338-2.214
		c-2.604-2.136-4.166-5.74-5.349-9.88c-0.051-0.908-0.374-1.433-0.546-2.171c-0.622-2.274-0.141-4.559-0.932-6.457
		c-0.395,0.067-0.789,0.135-1.184,0.202c-0.917,0.246-1.682,0.275-2.117-0.159c0.775-1.137,2.462-1.628,3.374-2.667
		c1.236-1.25,2.202-3.339,1.104-5.761c-1.809-0.384-4.561,0.332-4.901,1.884c-0.794,1.52,0.038,4.189-0.17,6.123
		c-0.293,0.063-0.533,0.053-0.706-0.053C406.562,15.039,408.18,7.134,412.727,6.494z"/>
	<path fill-rule="evenodd" clip-rule="evenodd" d="M390.537,29.446c1.343,1.954,2.535,4.12,4.257,5.54
		c1.295,1.74,2.739,3.272,4.421,4.467c0.826,0.653,1.438,1.61,2.576,1.822c1.241,0.628,2.219,1.627,4.349,0.997
		c2.652-1.296,2.893-4.298,3.101-7.322c0.287-1.63,0.156-3.556,0.116-5.418c-0.308-3.191-2.177-7.487,1.234-8.047
		c0.376,0.31,0.327,1.22,0.488,1.832c0.106,0.62,0.213,1.241,0.318,1.861c0.518,3.339,1.382,6.924,1.342,9.869
		c0.264,0.831-0.086,1.229,0.179,2.059c-0.117,3.485-0.834,6.546-3.066,8.535c-1.044,0.549-1.957,1.192-3.605,1.314
		c-3.507,0.473-5.117-1.734-7.321-3.101c-1.549-1.942-3.191-3.754-4.514-6.018c-1.891-2.439-3.434-5.373-5.059-8.188
		c-0.676-1.146-0.903-2.926-2.551-2.697c-0.01-0.057-0.02-0.113-0.029-0.169c-0.602-0.551-1.262-1.019-1.981-1.402
		c-1.801-0.544-3.854,0.941-3.315,3.005c-0.404,1.067,0.61,1.935,0.689,3.017c0.057-0.01,0.113-0.02,0.17-0.029
		c1.738,0.337,3.241-0.362,4.312-1.261c0.413-0.094,0.811-0.165,1.044-0.004c0.445,1.207-0.192,1.648-0.668,2.203
		c-1.267,0.641-2.171,1.536-4.055,1.739c-2.96,0.191-4.39-1.78-5.856-3.698c-0.146-0.846-0.291-1.691-0.435-2.538
		c0.245-1.738,1.118-4.191,2.571-5.315c3.332-2.578,9.867-0.68,10.507,2.38c0.216,1.03-0.709,1.642-0.638,2.373
		C389.207,28.193,390.074,28.274,390.537,29.446z"/>
	<path fill-rule="evenodd" clip-rule="evenodd" fill="#FFFFFF" d="M411.079,23.317c0.057-0.01,0.112-0.019,0.17-0.029
		c0.469,0.038,0.906,0.119,1.271,0.305c-0.324,0.759-0.296,0.947-0.952,1.557c-0.058,0.01-0.113,0.02-0.17,0.029
		C411.292,24.559,411.186,23.938,411.079,23.317z"/>
	<path fill-rule="evenodd" clip-rule="evenodd" fill="#F68D3D" d="M390.706,29.418c3.125-0.572,4.775,2.389,4.059,5.399
		C393.188,33.335,391.98,31.329,390.706,29.418z"/>
	<path fill-rule="evenodd" clip-rule="evenodd" fill="#FFFFFF" d="M416.081,25.073c0.057-0.01,0.113-0.02,0.169-0.029
		c0.172,0.738,0.495,1.263,0.546,2.171c0.01,0.056,0.02,0.112,0.029,0.169c-0.876,0.322-1.275,0.98-2.225,1.251
		C415.018,27.394,415.468,26.175,416.081,25.073z"/>
	<path fill-rule="evenodd" clip-rule="evenodd" fill="#1F569C" d="M387.022,32.312c-0.381,1.019-0.796,2.014-2.417,2.155
		c-0.745,0.144-1.263-0.036-1.638-0.416C384.852,33.848,385.756,32.952,387.022,32.312z"/>
	<path fill-rule="evenodd" clip-rule="evenodd" d="M443.846,31.638c0.01-2.1-2.687-5.701-2.154-8.512
		c0.533,0.018,0.93,0.228,1.021,0.87c0.333,0.3,0.321,1.086,0.738,1.267c0.338,1.202,0.688,2.391,1.257,3.268
		c1.838,4.69,5.675,9.879,5.883,16.057c0.094,2.773-1.102,6.453-2.529,8.617c-1.164,1.764-2.965,4.68-5.708,4.285
		c-1.348-2.57,0.383-4.662,1.185-6.297c0.924-1.884,1.971-4.245,1.92-6.075c-0.126-2.188,0.332-4.614-0.25-5.529
		c0.457-1.658-0.582-4.376-0.763-6.485C444.211,32.661,444.189,31.923,443.846,31.638z"/>
	<path fill-rule="evenodd" clip-rule="evenodd" fill="#F68D3D" d="M409.217,29.73c-0.068,1.687,0.198,3.609-0.175,5.08
		c-1.688-1.334-0.391-3.482,0.006-5.051C409.104,29.75,409.16,29.74,409.217,29.73z"/>
	<path fill-rule="evenodd" clip-rule="evenodd" d="M386.703,36.546c0.307-0.725-0.32-2.11,1.034-2.093
		c0.473,0.378,0.227,1.148,0.29,1.691c-0.291,0.56-0.394,0.812-0.189,1.948c-0.002,2.872,0.265,5.935,0.689,9.11
		c-0.103,1.3,0.118,2.733,0.667,3.891c1.126,5.061,3.625,8.182,5.555,12.108c0.676,1.013,2.06,3.169,0.695,4.06
		c-0.503,0.132-1.194,0.207-1.721,0.121c-1.793-0.294-4.123-4.121-5.334-6.749c-1.838-3.989-2.758-10.627-2.351-14.746
		c0.098-0.525,0.211-1.039,0.049-1.75C386.345,40.73,386.95,38.688,386.703,36.546z"/>
	<path fill-rule="evenodd" clip-rule="evenodd" fill="#FFFFFF" d="M412.918,37.106c-0.265-0.83,0.085-1.228-0.179-2.059
		c0.056-0.01,0.112-0.02,0.169-0.028c1.064-0.09,1.306-0.762,2.479-0.773C414.897,35.435,413.665,36.1,412.918,37.106z"/>
	<path fill-rule="evenodd" clip-rule="evenodd" fill="#F68D3D" d="M405.942,42.132c-1.841,0.499-2.831-0.201-3.813-0.914
		C403.32,40.103,405.654,40.612,405.942,42.132z"/>
	<path fill-rule="evenodd" clip-rule="evenodd" fill="#FFFFFF" d="M389.194,51.094c-0.549-1.157-0.77-2.591-0.667-3.891
		c2.221-0.461,2.93-1.99,4.559-2.87C392.168,46.854,390.723,49.004,389.194,51.094z"/>
	<path fill-rule="evenodd" clip-rule="evenodd" d="M418.238,40.723c0.454-0.224,1.011-0.375,1.464-0.599
		c2.004-0.099,3.481,0.543,4.775,1.446c0.011,0.545,0.531,0.369,0.652,0.759c0.302,0.413,0.438,1.062,1.049,1.039
		c2.066,2.518,3.236,8.654,1.8,11.532c-0.551,0.602-1.018,1.263-1.401,1.981c-2.476,2.665-9.523,4.373-12.828,2.37
		c-1.114-0.807-2.181-1.68-3.088-2.779c-1.613-2.196-1.547-6.146-1.023-8.009c0.51-0.581,0.66-1.416,1.035-2.093
		C411.622,43.376,416.178,42.933,418.238,40.723z M423.939,47.582c-0.897-1.952-2.501-2.907-4.416-3.423
		c-1.793,0.799-3.496,2.961-5.858,2.396c-1.406,2.156-1.547,7.8,1.477,8.627c1.9,1.026,5.956,0.092,7.048-1.555
		c1.25-0.947,1.813-2.383,2.098-4.016C424.172,48.936,424.056,48.26,423.939,47.582z"/>
	<path fill-rule="evenodd" clip-rule="evenodd" d="M438.541,44.386c0.543-0.065,0.811,0.256,1.411,0.106
		c0.137,0.228,0.335,0.368,0.594,0.421c0.847,5.059-1.784,7.657-6.309,8.916c-0.252-0.135-0.651-0.059-0.903-0.193
		c-1.41-0.867-2.104-3.945-1.096-5.385c0.124-0.061,0.332-0.062,0.31-0.227c1.098-0.853,3.561-2.144,4.596-0.613
		c-1.861,0.417-3.18,1.219-3.345,2.837c0.159,0.335,0.449,0.485,0.652,0.759c1.055-0.146,1.642-0.623,2.252-1.083
		c1.031-0.6,2.571-2.286,1.311-3.532c-0.733-0.779-2.077,0.226-2.963-0.015C434.979,44.839,436.846,44.673,438.541,44.386z"/>
	<path fill-rule="evenodd" clip-rule="evenodd" fill="#F68D3D" d="M422.609,53.033c0.718-1.622,1.242-3.382,1.33-5.451
		c0.116,0.678,0.232,1.354,0.348,2.03c-0.481,1.146-0.767,2.431-1.508,3.393C422.722,53.015,422.666,53.024,422.609,53.033z"/>
	<path fill-rule="evenodd" clip-rule="evenodd" d="M397.871,61.1c-2.219-2.277,0.275-5.256-0.002-7.138
		c1.106-0.594,1.522-0.786,2.73-1.338c0.691,0.08,1.36,0.013,2.03-0.349c0.288,0.292,1.052-0.086,1.411,0.107
		c1.062,3.05-0.535,5.455-1.688,7.428C401.684,60.91,399.15,62.187,397.871,61.1z M401.933,54.311
		c-3.215-0.49-4.413,3.405-2.799,5.006c0.28-0.147,1.028,0.035,0.985-0.343c0.65-0.134,0.55-0.8,1.039-1.048
		C401.888,57.232,402.801,55.147,401.933,54.311z"/>
	<path fill-rule="evenodd" clip-rule="evenodd" fill="#F68D3D" d="M438.043,46.561c0.87,1.362-0.427,2.472-1.199,3.166
		C436.847,48.39,437.462,47.488,438.043,46.561z"/>
	<path fill-rule="evenodd" clip-rule="evenodd" fill="#F68D3D" d="M415.113,55.014c-1.257-0.237-2.013-1.887-2.103-3.122
		c1.331,0.169,3.133-0.402,4.2-0.894C416.366,52.233,415.485,53.444,415.113,55.014z"/>
	<path fill-rule="evenodd" clip-rule="evenodd" fill="#FFFFFF" d="M415.821,62.206c0.01,0.057,0.02,0.112,0.029,0.169
		c-0.564,0.146-0.926,0.435-1.662,0.459c-0.01-0.057-0.02-0.112-0.029-0.17c0.306-0.477,0.626-0.944,1.378-1.105
		C415.554,61.885,415.792,61.898,415.821,62.206z"/>
	<path fill-rule="evenodd" clip-rule="evenodd" d="M415.851,62.375c2.994-0.656,5.365-1.754,8.682-2.183
		c6.222-1.272,11.711-1.581,16.949-1.684c3.399-0.066,6.999-0.849,9.54,0.805c-1.635,2.023-4.635,1.34-7.046,1.555
		c-15.541,1.384-34.311,4.972-45.096,11.203c-0.508,0.087-1.015,0.174-1.522,0.261c-5.318-2.783,3.158-5.556,6.178-6.63
		c3.532-0.969,7.192-1.848,10.653-2.868C414.925,62.81,415.286,62.521,415.851,62.375z"/>
	<path fill-rule="evenodd" clip-rule="evenodd" fill="#5D4F24" d="M419.246,26.272c0.057-0.01,0.113-0.02,0.169-0.029
		c0.859,2.079,1.98,3.785,3.185,5.375C421.15,30.304,420.186,28.308,419.246,26.272z"/>
	<path fill-rule="evenodd" clip-rule="evenodd" fill="#F68D3D" d="M423.024,32.068c-0.221-0.039-0.385-0.157-0.425-0.45
		c-1.204-1.59-2.325-3.296-3.185-5.375C423.492,24.809,424.771,29.908,423.024,32.068z"/>
	<path fill-rule="evenodd" clip-rule="evenodd" fill="#F68D3D" d="M427.954,36.448c-1.503-0.54-2.604-1.644-3.625-2.862
		C424.609,32.365,428.336,33.799,427.954,36.448z"/>
	<path fill-rule="evenodd" clip-rule="evenodd" fill="#5D4F24" d="M438.11,23.564c-0.649,2.315-1.322,4.615-2.539,6.529
		C436.362,27.878,437.316,25.778,438.11,23.564z"/>
	<path fill-rule="evenodd" clip-rule="evenodd" fill="#1F569C" d="M441.152,15.905c0.037-0.965-0.148-2.088,0.609-2.542
		c0.699-0.077,1.603-0.444,1.919,0.02c0.682,0.717,1.153,1.731,1.255,3.268c-0.008,2.336-4.411,2.453-6.113,1.917
		c-0.105,0.173-0.117,0.413-0.054,0.706c-0.388-0.577-0.695-2.372-0.521-3.045c0.113,0.121,0.225,0.244,0.256,0.479
		C439.255,17.673,441.043,17.014,441.152,15.905z"/>
	<path fill-rule="evenodd" clip-rule="evenodd" fill="#5D4F24" d="M438.503,16.707c0.938,0.668,2.289,0.126,2.649-0.802
		C441.043,17.014,439.255,17.673,438.503,16.707z"/>
	<path fill-rule="evenodd" clip-rule="evenodd" fill="#5D4F24" d="M437.146,35.223c1.456-2.438,2.712-5.02,3.52-7.916
		C440.104,30.377,438.754,32.891,437.146,35.223z"/>
	<path fill-rule="evenodd" clip-rule="evenodd" fill="#5D4F24" d="M431.805,39.619c1.307-0.611,2.433-1.351,3.263-2.3
		c-0.524,1.165-1.949,1.693-3.064,2.44C431.864,39.815,431.832,39.721,431.805,39.619z"/>
	<path fill-rule="evenodd" clip-rule="evenodd" fill="#5D4F24" d="M425.482,39.309c0.58,0.373,1.354,0.467,2.035,0.696
		c-0.113,0.02-0.226,0.039-0.338,0.059C426.542,39.912,425.868,39.815,425.482,39.309z"/>
	<path fill-rule="evenodd" clip-rule="evenodd" fill="#F68D3D" d="M422.145,37.095c1.008,0.885,2.095,1.661,3.338,2.214
		c0.386,0.507,1.06,0.604,1.697,0.755c-0.559,0.763-1.024,2.776-2.05,2.266c-0.121-0.39-0.642-0.214-0.652-0.759
		c-1.224-1.002-2.533-1.883-4.775-1.446c-2.138-1.586-4.129,1.343-4.954,2.59c-2.008,0.71-3.29,1.934-4.104,3.488
		c-0.152-0.066-0.306-0.13-0.536-0.082c-0.029-0.17-0.059-0.339-0.088-0.508c2.127-2.014,3.13-4.822,2.897-8.506
		c0.747-1.007,1.979-1.672,2.47-2.86c-1.174,0.012-1.415,0.684-2.479,0.773c0.04-2.945-0.824-6.53-1.341-9.87
		c0.656-0.609,0.628-0.798,0.952-1.557c-0.364-0.186-0.802-0.267-1.271-0.305c-0.213-0.609-0.024-1.788-0.658-1.803
		c-0.019-0.112-0.038-0.226-0.058-0.338c0.423-0.544,0.833-1.096,1.291-1.614c0.703,0.231,2.159-0.106,2.311-0.744
		c0.395-0.067,0.789-0.135,1.184-0.202c0.43,2.286,0.245,4.138,0.763,6.486c-0.613,1.102-1.063,2.32-1.48,3.562
		c0.949-0.271,1.349-0.929,2.225-1.251C417.767,31.794,419.462,35.143,422.145,37.095z"/>
	<path fill-rule="evenodd" clip-rule="evenodd" fill="#5D4F24" d="M416.796,27.215c1.183,4.14,2.745,7.744,5.349,9.88
		c-2.683-1.952-4.378-5.301-5.319-9.711C416.815,27.327,416.806,27.271,416.796,27.215z"/>
	<path fill-rule="evenodd" clip-rule="evenodd" fill="#5D4F24" d="M415.318,18.587c0.791,1.898,0.31,4.183,0.932,6.457
		c-0.056,0.01-0.112,0.02-0.169,0.029C415.563,22.725,415.748,20.873,415.318,18.587z"/>
	<path fill-rule="evenodd" clip-rule="evenodd" fill="#69CBF0" d="M415.392,15.963c-0.912,1.039-2.599,1.53-3.374,2.667
		c0.436,0.435,1.2,0.405,2.117,0.159c-0.151,0.638-1.607,0.976-2.311,0.744c-0.899-0.167-0.474-0.899-1.106-1.377
		c0.173,0.105,0.413,0.116,0.706,0.053c0.208-1.934-0.624-4.604,0.17-6.123C413.483,9.337,417.885,13.716,415.392,15.963z"/>
	<path fill-rule="evenodd" clip-rule="evenodd" fill="#FFFFFF" d="M415.392,15.963c2.493-2.247-1.908-6.626-3.798-3.877
		c0.341-1.552,3.093-2.268,4.901-1.884C417.594,12.624,416.628,14.713,415.392,15.963z"/>
	<path fill-rule="evenodd" clip-rule="evenodd" fill="#5D4F24" d="M390.537,29.446c0.057-0.01,0.112-0.02,0.169-0.028
		c1.274,1.911,2.481,3.917,4.059,5.399c0.01,0.056,0.02,0.112,0.029,0.169C393.072,33.566,391.88,31.4,390.537,29.446z"/>
	<path fill-rule="evenodd" clip-rule="evenodd" fill="#F68D3D" d="M399.215,39.453c-1.682-1.194-3.126-2.727-4.421-4.467
		c3.441-2.317,5.553,1.128,5.186,4.858C399.625,39.854,399.569,39.443,399.215,39.453z"/>
	<path fill-rule="evenodd" clip-rule="evenodd" fill="#5D4F24" d="M401.791,41.275c0.112-0.02,0.226-0.039,0.338-0.058
		c0.982,0.713,1.973,1.413,3.813,0.914c0.104-0.008,0.205-0.009,0.197,0.141C404.01,42.902,403.032,41.903,401.791,41.275z"/>
	<path fill-rule="evenodd" clip-rule="evenodd" fill="#F68D3D" d="M409.356,29.532c0.04,1.862,0.171,3.788-0.116,5.418
		c-0.104,0.009-0.205,0.01-0.198-0.14c0.373-1.471,0.106-3.394,0.175-5.08C409.209,29.626,409.208,29.526,409.356,29.532z"/>
	<path fill-rule="evenodd" clip-rule="evenodd" fill="#5D4F24" d="M410.591,21.485c0.634,0.015,0.445,1.193,0.658,1.803
		c-0.058,0.011-0.113,0.02-0.17,0.029C410.918,22.705,410.967,21.795,410.591,21.485z"/>
	<path fill-rule="evenodd" clip-rule="evenodd" fill="#5D4F24" d="M411.397,25.179c0.057-0.01,0.112-0.02,0.17-0.029
		c0.517,3.34,1.381,6.925,1.341,9.87c-0.057,0.009-0.113,0.019-0.169,0.028C412.779,32.103,411.915,28.518,411.397,25.179z"/>
	<path fill-rule="evenodd" clip-rule="evenodd" fill="#5D4F24" d="M412.918,37.106c0.232,3.684-0.771,6.492-2.897,8.506
		c-0.057,0.01-0.112,0.02-0.169,0.029C412.084,43.652,412.801,40.592,412.918,37.106z"/>
	<path fill-rule="evenodd" clip-rule="evenodd" fill="#5D4F24" d="M398.925,43.855c2.204,1.366,3.814,3.573,7.321,3.101
		c0.01,0.056,0.02,0.112,0.028,0.168C402.721,47.595,400.945,45.552,398.925,43.855z"/>
	<path fill-rule="evenodd" clip-rule="evenodd" fill="#5D4F24" d="M389.353,29.649c1.625,2.815,3.168,5.749,5.059,8.188
		c-2.14-2.158-3.52-5.392-5.228-8.159C389.24,29.669,389.296,29.659,389.353,29.649z"/>
	<path fill-rule="evenodd" clip-rule="evenodd" fill="#5D4F24" d="M384.791,25.381c0.72,0.384,1.38,0.852,1.981,1.402
		C386.054,26.398,385.394,25.931,384.791,25.381z"/>
	<path fill-rule="evenodd" clip-rule="evenodd" fill="#5D4F24" d="M381.476,28.386c0.048,1.333,0.682,1.838,0.859,2.987
		c-0.057,0.01-0.113,0.02-0.17,0.029C382.086,30.32,381.071,29.453,381.476,28.386z"/>
	<path fill-rule="evenodd" clip-rule="evenodd" fill="#FFFFFF" d="M425.13,42.329c1.025,0.511,1.491-1.503,2.05-2.266
		c0.112-0.02,0.225-0.039,0.338-0.059c1.368,0.242,2.697,0.154,4.287-0.386c0.027,0.102,0.06,0.196,0.198,0.141
		c0.977,2.702,5.067,1.079,7.931,0.558c0.051,1.77-2.27,1.862-3.938,2.415c-0.283,0.048-0.564,0.097-0.847,0.145
		c-2.635,0.96-4.315,2.597-6.473,3.895c-0.195-1.08,0.528-1.51,0.045-2.794c-0.446-0.634-1.901-0.949-2.542-0.609
		C425.567,43.392,425.432,42.742,425.13,42.329z"/>
	<path fill-rule="evenodd" clip-rule="evenodd" fill="#5D4F24" d="M419.702,40.124c2.242-0.437,3.552,0.444,4.775,1.446
		C423.184,40.667,421.706,40.025,419.702,40.124z"/>
	<path fill-rule="evenodd" clip-rule="evenodd" fill="#EC1C24" d="M419.702,40.124c-0.453,0.224-1.01,0.375-1.464,0.599
		c-0.899,0.851-2.244,1.386-3.49,1.991C415.573,41.467,417.564,38.538,419.702,40.124z"/>
	<path fill-rule="evenodd" clip-rule="evenodd" fill="#5D4F24" d="M410.645,46.202c0.813-1.555,2.096-2.778,4.104-3.488
		c1.246-0.605,2.591-1.141,3.49-1.991c-2.061,2.21-6.616,2.653-7.565,5.648C410.663,46.315,410.653,46.259,410.645,46.202z"/>
	<path fill-rule="evenodd" clip-rule="evenodd" fill="#F68D3D" d="M386.088,44.138c0.162,0.711,0.049,1.225-0.049,1.75
		c-0.164,0.033-0.096,0.229-0.111,0.367C385.645,45.899,385.694,44.509,386.088,44.138z"/>
	<path fill-rule="evenodd" clip-rule="evenodd" fill="#FFFFFF" d="M410.673,46.371c-0.375,0.677-0.525,1.512-1.035,2.093
		c0.078-0.168,0.153-0.338-0.058-0.338c-1.664,0.755-3.128,1.651-4.418,2.672c-0.135-1.583,1.015-2.257,1.112-3.674
		c-0.009-0.056-0.019-0.112-0.028-0.168c1.648-0.122,2.562-0.766,3.605-1.314c0.057-0.01,0.112-0.02,0.169-0.029
		c0.029,0.169,0.059,0.338,0.088,0.508c0.23-0.048,0.384,0.016,0.536,0.082C410.653,46.259,410.663,46.315,410.673,46.371z"/>
	<path fill-rule="evenodd" clip-rule="evenodd" fill="#5D4F24" d="M410.661,56.473c0.907,1.1,1.974,1.973,3.088,2.779
		C412.552,58.562,411.391,57.823,410.661,56.473z"/>
	<path fill-rule="evenodd" clip-rule="evenodd" fill="#5D4F24" d="M426.577,56.882c0.384-0.719,0.851-1.38,1.401-1.981
		C427.595,55.62,427.127,56.28,426.577,56.882z"/>
	<path fill-rule="evenodd" clip-rule="evenodd" fill="#5D4F24" d="M432.238,48.251c-1.009,1.439-0.314,4.518,1.096,5.385
		C431.716,53.272,430.832,49.29,432.238,48.251z"/>
	<path fill-rule="evenodd" clip-rule="evenodd" fill="#5D4F24" d="M434.237,53.829c4.524-1.259,7.155-3.857,6.309-8.916
		c-0.259-0.053-0.457-0.193-0.594-0.421c0.143,0.009,0.198,0.142,0.368,0.111C442.229,49.193,438.655,53.225,434.237,53.829z"/>
	<path fill-rule="evenodd" clip-rule="evenodd" fill="#5D4F24" d="M444.275,33.131c0.057-0.01,0.113-0.02,0.169-0.028
		c0.181,2.109,1.22,4.827,0.763,6.485C445.239,37.678,444.559,35.264,444.275,33.131z"/>
	<path fill-rule="evenodd" clip-rule="evenodd" fill="#5D4F24" d="M415.821,62.206c2.994-0.656,5.365-1.754,8.682-2.183
		c0.009,0.056,0.02,0.112,0.029,0.169c-3.316,0.429-5.688,1.526-8.682,2.183C415.841,62.318,415.831,62.263,415.821,62.206z"/>
	<path fill-rule="evenodd" clip-rule="evenodd" fill="#5D4F24" d="M403.507,65.533c3.532-0.97,7.191-1.848,10.652-2.869
		c0.01,0.058,0.02,0.113,0.029,0.17c-3.461,1.021-7.121,1.899-10.653,2.868C403.526,65.646,403.517,65.59,403.507,65.533z"/>
	<path fill-rule="evenodd" clip-rule="evenodd" fill="#5D4F24" d="M395.444,67.262c1.364-0.891-0.02-3.047-0.695-4.06
		c0.923,0.711,2.045,2.993,1.033,4.002C395.67,67.224,395.557,67.242,395.444,67.262z"/>
	<path fill-rule="evenodd" clip-rule="evenodd" fill="#F68D3D" d="M388.027,36.145c-0.063-0.543,0.183-1.313-0.29-1.691
		c-1.354-0.018-0.728,1.368-1.034,2.093c-0.929-0.368-1.865-0.727-2.098-2.079c1.621-0.142,2.036-1.137,2.417-2.155
		c0.476-0.555,1.113-0.996,0.668-2.203c0.67-0.022,0.774-0.443,1.493-0.43c1.708,2.768,3.088,6.001,5.228,8.159
		c1.322,2.264,2.965,4.075,4.514,6.018c2.021,1.696,3.796,3.739,7.35,3.269c-0.098,1.417-1.247,2.091-1.112,3.674
		c1.29-1.021,2.754-1.917,4.418-2.672c0.211,0,0.136,0.17,0.058,0.338c-0.523,1.862-0.59,5.812,1.023,8.009
		c0.729,1.351,1.891,2.09,3.088,2.779c3.305,2.003,10.353,0.295,12.828-2.37c0.55-0.602,1.018-1.262,1.401-1.981
		c1.437-2.878,0.267-9.015-1.8-11.532c0.641-0.34,2.096-0.024,2.542,0.609c0.483,1.284-0.24,1.714-0.045,2.794
		c2.157-1.298,3.838-2.935,6.473-3.895c-1.076,1.567-2.121,3.157-2.601,5.147c0.022,0.165-0.186,0.166-0.31,0.227
		c-1.406,1.039-0.522,5.021,1.096,5.385c0.252,0.135,0.651,0.059,0.903,0.193c4.418-0.604,7.992-4.636,6.083-9.226
		c-0.17,0.03-0.226-0.103-0.368-0.111c-0.601,0.149-0.868-0.172-1.411-0.106c-0.338-1.272-1.2-1.805-2.546-1.653
		c1.669-0.553,3.989-0.646,3.938-2.415c-2.863,0.521-6.954,2.145-7.931-0.558c1.115-0.747,2.54-1.275,3.064-2.44
		c0.889-0.561,1.178-1.545,2.079-2.097c1.607-2.332,2.957-4.846,3.52-7.916c0.378-1.418,0.429-3.067,0.403-4.771
		c0.619-0.106,1.239-0.212,1.86-0.318c-0.127,0.555-0.03,1.268-0.218,1.778c-0.091-0.643-0.487-0.853-1.021-0.87
		c-0.532,2.811,2.164,6.412,2.154,8.512c0.109,0.672-0.533,0.812-0.841,1.188c0.055,0.624,0.94,0.071,1.271,0.305
		c0.283,2.133,0.964,4.547,0.932,6.457c0.582,0.915,0.124,3.342,0.25,5.529c-2.348,2.736-4.016,6.369-6.985,9.032
		c-0.961,0.861-2.259,1.62-3.234,2.469c-1.091,0.949-2.312,2.34-4.983,2.42c-0.844-0.488-1.511-1.226-1.536-2.871
		c-2.17,0.744-2.876,2.523-4.215,3.856c-3.316,0.429-5.688,1.526-8.682,2.183c-0.029-0.308-0.268-0.321-0.284-0.647
		c-0.752,0.161-1.072,0.629-1.378,1.105c-3.461,1.021-7.12,1.899-10.652,2.869c-0.058,0.01-0.113,0.02-0.17,0.029
		c-0.444-2.446,0.913-3.616,1.331-5.451c-3.034,2.313-5.149,5.276-8.886,7.093c1.012-1.009-0.11-3.291-1.033-4.002
		c-1.93-3.927-4.429-7.048-5.555-12.108c1.528-2.09,2.974-4.239,3.892-6.761c-1.629,0.88-2.338,2.409-4.559,2.87
		c-0.425-3.176-0.691-6.238-0.689-9.11c0.781-0.687,0.918-1.829,1.456-2.688C388.778,35.003,388.72,36.181,388.027,36.145z
		 M400.6,52.624c-3.499-1.389-5.781,3.339-4.994,6.426c1.087,0.217,1.322,1.634,2.266,2.05c1.279,1.087,3.812-0.189,4.481-1.289
		c1.419-1.834,2.862-4.398,1.857-7.457c-0.418-0.18-0.888-0.285-1.58-0.078C401.96,52.637,401.291,52.704,400.6,52.624z"/>
	<path fill-rule="evenodd" clip-rule="evenodd" fill="#5D4F24" d="M415.142,55.183c-3.023-0.827-2.883-6.471-1.477-8.627
		c-0.723,1.422-0.835,3.274-0.654,5.336c0.09,1.235,0.846,2.885,2.103,3.122C415.122,55.07,415.132,55.127,415.142,55.183z"/>
	<path fill-rule="evenodd" clip-rule="evenodd" fill="#5D4F24" d="M422.609,53.033c0.057-0.009,0.112-0.019,0.17-0.028
		c0.741-0.962,1.026-2.247,1.508-3.393c-0.284,1.633-0.848,3.068-2.098,4.016C422.242,53.369,422.382,53.171,422.609,53.033z"/>
	<path fill-rule="evenodd" clip-rule="evenodd" fill="#EC1C24" d="M413.665,46.556c2.362,0.564,4.065-1.598,5.858-2.396
		c1.915,0.516,3.519,1.471,4.416,3.423c-0.088,2.069-0.612,3.829-1.33,5.451c-0.228,0.138-0.367,0.336-0.42,0.595
		c-1.092,1.646-5.147,2.581-7.048,1.555c-0.01-0.056-0.02-0.112-0.028-0.169c0.372-1.569,1.253-2.78,2.098-4.016
		c-1.067,0.491-2.869,1.062-4.2,0.894C412.83,49.83,412.942,47.978,413.665,46.556z"/>
	
		<path fill-rule="evenodd" clip-rule="evenodd" fill="#3FAC49" stroke="#231F20" stroke-width="0.216" stroke-miterlimit="2.6131" d="
		M436.703,49.924c-0.61,0.46-1.197,0.938-2.252,1.083c-0.203-0.273-0.493-0.424-0.652-0.759c0.165-1.618,1.483-2.42,3.345-2.837
		c-1.035-1.53-3.498-0.239-4.596,0.613c0.479-1.99,1.524-3.58,2.601-5.147c0.282-0.048,0.563-0.097,0.847-0.145
		c1.346-0.151,2.208,0.381,2.546,1.653c-1.695,0.287-3.562,0.453-3.49,1.991c0.886,0.24,2.229-0.765,2.963,0.015
		c0.01,0.057,0.02,0.113,0.029,0.169c-0.581,0.928-1.196,1.829-1.199,3.166C436.694,49.72,436.695,49.819,436.703,49.924z"/>
	<path fill-rule="evenodd" clip-rule="evenodd" fill="#5D4F24" d="M436.844,49.727c0.772-0.694,2.069-1.804,1.199-3.166
		c-0.01-0.056-0.02-0.112-0.029-0.169c1.261,1.246-0.279,2.933-1.311,3.532C436.695,49.819,436.694,49.72,436.844,49.727z"/>
	<path fill-rule="evenodd" clip-rule="evenodd" fill="#5D4F24" d="M402.353,59.811c1.153-1.973,2.751-4.378,1.688-7.428
		c-0.359-0.193-1.123,0.185-1.411-0.107c0.692-0.207,1.162-0.102,1.58,0.078C405.215,55.412,403.771,57.977,402.353,59.811z"/>
	
		<path fill-rule="evenodd" clip-rule="evenodd" fill="#3FAC49" stroke="#231F20" stroke-width="0.216" stroke-miterlimit="2.6131" d="
		M400.6,52.624c-1.208,0.552-1.624,0.744-2.73,1.338c0.277,1.882-2.217,4.86,0.002,7.138c-0.943-0.416-1.179-1.833-2.266-2.05
		C394.818,55.963,397.101,51.235,400.6,52.624z"/>
	<path fill-rule="evenodd" clip-rule="evenodd" fill="#F68D3D" d="M401.158,57.926c-0.489,0.248-0.389,0.914-1.039,1.048
		c0.522-1.365,1.572-2.356,1.959-3.817C402.043,56.271,401.653,57.136,401.158,57.926z"/>
	<path fill-rule="evenodd" clip-rule="evenodd" fill="#5D4F24" d="M401.158,57.926c0.495-0.79,0.885-1.655,0.92-2.77
		c-0.049-0.282-0.097-0.564-0.146-0.846C402.801,55.147,401.888,57.232,401.158,57.926z"/>
	<path fill-rule="evenodd" clip-rule="evenodd" fill="#1F569C" d="M381.476,28.386c-0.538-2.063,1.515-3.549,3.315-3.005
		c0.603,0.55,1.263,1.018,1.981,1.402c0.01,0.056,0.02,0.112,0.029,0.169c0.278,1.031-0.347,1.505-0.155,3.16
		c-1.07,0.898-2.573,1.598-4.312,1.261C382.157,30.224,381.523,29.719,381.476,28.386z"/>
	<path fill-rule="evenodd" clip-rule="evenodd" fill="#FFFFFF" d="M444.936,16.65c-0.102-1.536-0.573-2.551-1.255-3.268
		C445.018,13.36,446.011,15.688,444.936,16.65z"/>
	<path fill-rule="evenodd" clip-rule="evenodd" fill="#F68D3D" d="M438.575,20.177c0.116,1.321-0.283,2.277-0.465,3.388
		c-0.794,2.214-1.748,4.313-2.539,6.529c-0.373,0.183-0.356,0.64-0.729,0.821C430.252,28.904,436.546,21.489,438.575,20.177z"/>
	<path fill-rule="evenodd" clip-rule="evenodd" fill="#FFFFFF" d="M387.838,38.093c-0.204-1.136-0.102-1.389,0.189-1.948
		c0.692,0.036,0.751-1.142,1.267-0.739C388.756,36.264,388.619,37.406,387.838,38.093z"/>
	<path fill-rule="evenodd" clip-rule="evenodd" fill="#F68D3D" d="M444.707,28.53c-0.569-0.877-0.919-2.065-1.257-3.268
		c2.112-0.056,3.883,3.396,1.967,4.364C445.212,29.217,445.083,28.697,444.707,28.53z"/>
	
		<path fill-rule="evenodd" clip-rule="evenodd" fill="#3FAC49" stroke="#231F20" stroke-width="0.216" stroke-miterlimit="2.6131" d="
		M400.119,58.974c0.043,0.378-0.705,0.195-0.985,0.343c-1.614-1.601-0.416-5.496,2.799-5.006c0.049,0.281,0.097,0.563,0.146,0.846
		C401.691,56.617,400.642,57.608,400.119,58.974z"/>
	<path fill-rule="evenodd" clip-rule="evenodd" fill="#FFFFFF" d="M386.802,26.952c1.647-0.229,1.875,1.551,2.551,2.697
		c-0.057,0.01-0.112,0.02-0.169,0.029c-0.719-0.014-0.823,0.407-1.493,0.43c-0.233-0.161-0.631-0.09-1.044,0.004
		C386.455,28.457,387.08,27.983,386.802,26.952z"/>
	<path fill-rule="evenodd" clip-rule="evenodd" fill="#FFFFFF" d="M443.846,31.638c0.344,0.285,0.365,1.023,0.599,1.465
		c-0.056,0.009-0.112,0.019-0.169,0.028c-0.33-0.233-1.216,0.319-1.271-0.305C443.312,32.45,443.955,32.31,443.846,31.638z"/>
</g>
</svg>
